If you like this release, for a great and secure community, open registrations are up. Home of group SLRG.... http://sceneleakers.me/signup.php


Prometheus.2012.DVDRip.Xvid.Ac3-SLRG





PLOT
A team of explorers discover a clue to the origins of mankind on Earth, leading them 
on a journey to the darkest corners of the universe. There, they must fight a 
terrifying battle to save the future of the human race.


IMDB 
http://www.imdb.com/title/tt1446714/

INFO
Format                                   : AVI
Format/Info                              : Audio Video Interleave
File size                                : 1.26 GiB
Duration                                 : 2h 3mn
Overall bit rate                         : 1 457 Kbps
Writing library                          : VirtualDub build 32842/release
Mediainfo:

VIDEO
ID                                       : 0
Format                                   : MPEG-4 Visual
Format profile                           : Advanced Simple@L5
Format settings, BVOP                    : 2
Format settings, QPel                    : Yes
Format settings, GMC                     : No warppoints
Format settings, Matrix                  : Default (H.263)
Codec ID                                 : XVID
Codec ID/Hint                            : XviD
Duration                                 : 2h 3mn
Bit rate                                 : 999 Kbps
Width                                    : 720 pixels
Height                                   : 304 pixels
Display aspect ratio                     : 2.35:1
Frame rate                               : 23.976 fps
Color space                              : YUV
Chroma subsampling                       : 4:2:0
Bit depth                                : 8 bits
Scan type                                : Progressive
Compression mode                         : Lossy
Bits/(Pixel*Frame)                       : 0.190
Stream size                              : 885 MiB (69%)
Writing library                          : XviD 1.2.1 (UTC 2008-12-04)


AUDIO
ID                                       : 1
Format                                   : AC-3
Format/Info                              : Audio Coding 3
Mode extension                           : CM (complete main)
Format settings, Endianness              : Big
Codec ID                                 : 2000
Duration                                 : 2h 3mn
Bit rate mode                            : Constant
Bit rate                                 : 448 Kbps
Channel(s)                               : 6 channels
Channel positions                        : Front: L C R, Side: L R, LFE
Sampling rate                            : 48.0 KHz
Bit depth                                : 16 bits
Compression mode                         : Lossy
Stream size                              : 397 MiB (31%)
Alignment                                : Split accross interleaves
Interleave, duration                     : 42 ms (1.00 video frame)
Interleave, preload duration             : 500 ms


Source: DVD-R 


LOOKING FOR PRE-RELEASE DVDs/Blu-ray Releases

slrg@hushmail.com

Respects: To all the P2P groups keep up the fight :)
